<svg version="1.1" xmlns="http://www.w3.org/2000/svg" xmlns:xlink="http://www.w3.org/1999/xlink" x="0px" y="0px"
    viewBox="0 0 30 24" style="enable-background:new 0 0 30 24;" xml:space="preserve" fill="#fff">
    <path 
        d="M22,10.4c-0.1,0-0.3,0-0.4,0c-1.5,0-2.9-0.7-3.7-2v6.8c0,2.8-2.2,5-5,5s-5-2.2-5-5s2.2-5,5-5l0,0c0.1,0,0.2,0,0.3,0v2.5
                  c-0.1,0-0.2,0-0.3,0c-1.4,0-2.5,1.1-2.5,2.5c0,1.4,1.1,2.5,2.5,2.5c1.4,0,2.7-1.1,2.7-2.5l0-11.5H18c0.2,2.1,1.9,3.8,4,3.9L22,10.4">
    </path>
</svg>